<svg width="256" height="151" viewBox="0 0 256 151" fill="none" xmlns="http://www.w3.org/2000/svg">
<g clip-path="url(#clip0_201_10)">
<path fill-rule="evenodd" clip-rule="evenodd" d="M153.774 18.9523C153.374 19.0694 153.27 19.2489 152.874 19.588C152.554 19.8609 152.285 20.0546 151.975 20.3212C151.266 20.9318 150.851 21.3093 150.227 21.8335C147.133 24.4365 142.935 28.4921 139.902 31.3322C135.196 35.7381 130.956 39.9811 126.442 44.3631C117.928 52.627 108.281 62.5499 99.7601 70.5171C92.7184 77.1011 86.6787 83.0143 79.32 89.5965C76.5077 92.112 74.7361 94.4034 70.907 94.5358C64.5879 94.754 56.2524 89.3751 51.9896 86.9294C48.2646 84.7924 38.3709 78.9741 33.6013 78.8127L37.0957 83.613C39.5944 87.4255 43.7954 95.7297 45.813 99.7705C52.7447 113.653 62.1026 128.19 74.0129 137.86C77.0582 140.332 79.8176 142.41 83.6857 144.751C85.3825 145.777 87.1136 146.631 89.0111 147.705C89.669 148.078 94.231 150.208 94.7933 150.207C93.5439 148.955 92.2586 147.425 91.2433 146.231C86.7091 140.899 76.6224 130.531 73.5928 125.239C71.0489 120.797 70.4644 118.076 73.2912 113.616C76.5228 108.518 84.0585 102.21 88.7858 98.1668C100.29 88.3273 110.665 79.4155 122.702 70.0736C128.405 65.6473 134.335 61.132 140.469 56.7553C146.485 52.4621 152.533 48.3261 158.814 44.1741L168.299 38.1386C169.179 37.6339 177.817 32.4909 177.955 32.3185L186.408 27.6554C189.247 26.0517 192.004 24.713 195.01 23.0939C203.832 18.3436 221.351 10.6009 231.39 7.05916C234.686 5.89663 237.826 4.79855 241.159 3.65967L251.149 0.530417C250.341 0.11472 239.303 0.000300228 237.269 4.56932e-06C229.085 -0.00117807 224.063 0.227071 216.25 0.844407C210.27 1.31687 199.142 2.54445 193.704 3.85924C192.725 4.09577 191.566 4.19689 190.58 4.45647C188.695 4.95318 186.537 5.29496 184.606 5.77571C180.624 6.76705 177.009 7.89026 173.267 9.00608C169.415 10.1544 165.931 11.5156 162.485 12.9333C160.449 13.7709 154.297 17.8841 153.774 18.9526L153.774 18.9523ZM233.716 38.7222L240.981 35.0125C243.5 33.8128 246.107 32.4335 248.48 31.2736C253.295 28.9205 256.069 21.296 255.999 16.4082C255.148 16.444 251.689 18.0837 250.75 18.4275C250.104 18.6638 249.508 18.8672 248.903 19.1244C244.613 20.9472 238.886 23.1025 234.82 25.0216C233.639 25.579 232.497 26.0399 231.302 26.5526C230.364 26.955 228.296 27.7665 227.91 28.2452C226.619 28.1796 200.336 41.2045 197.059 42.8987C192.395 45.3106 186.529 48.2016 182.046 50.6961C181.515 50.9914 167.847 58.2253 167.302 58.9219C166.402 59.0721 157.033 64.6355 155.538 65.4793C136.999 75.94 116.468 89.0995 98.7105 101.143C93.7757 104.49 87.4725 108.881 82.5125 112.618L78.5312 115.59C78.0735 115.939 77.5336 116.17 77.2699 116.694C79.0403 118.218 90.7682 123.05 93.566 124.059C109.269 129.718 123.967 133.661 140.489 136.497L150.974 138.101L159.233 138.829L152.507 138.236C153.791 138.382 155.065 138.591 156.314 138.71C158.161 138.886 159.994 139.037 161.896 139.228C165.48 139.587 169.64 139.832 173.324 139.897C177.903 139.977 180.427 140.211 184.181 138.626C187.092 137.397 189.46 135.868 191.774 134.095C200.391 127.491 208.058 117.163 214.174 107.816C220.574 98.0335 226.339 87.1038 231.309 76.2756C233.84 70.7607 236.214 65.0066 238.451 59.1448C239.584 56.1738 240.567 53.3044 241.59 50.1518C242.157 48.4065 244.219 42.0347 244.376 40.6111C242.025 40.9322 200.925 63.1073 197.015 65.2067C191.711 68.0542 186.632 71.0203 181.486 73.8151C176.485 76.5314 171.195 79.7413 166.22 82.5069C156.109 88.1259 145.928 94.385 135.832 100.231C134.101 101.233 121.245 108.748 120.784 109.277C121.648 109.138 162.407 91.6339 163.394 91.2262C165.316 90.4315 205.335 73.2584 205.991 73.2297C205.761 74.1552 203.284 78.7796 202.659 80.1387C201.617 82.4035 200.361 84.981 199.222 87.2333C192.769 99.9996 185.765 115.329 171.675 120.987L170.829 121.495C170.073 121.513 168.011 122.351 167.101 122.601C165.731 122.977 164.408 123.238 163.027 123.521C156.533 124.851 146.715 124.157 139.948 123.099C132.231 121.891 126.827 120.536 119.346 118.728C117.561 118.296 104.654 114.671 103.908 114.178C104.329 113.445 111.71 108.715 112.356 108.267C126.638 98.3392 150.362 83.7514 165.791 74.9732C167.424 74.044 168.941 73.1999 170.434 72.3442C171.676 71.6329 173.947 70.447 174.95 69.7185L182.169 65.759C184.61 64.4049 186.851 63.2317 189.422 61.7644C194.283 58.9908 199.208 56.6657 203.992 53.9708C204.695 53.5746 232.015 39.2189 233.716 38.7225L233.716 38.7222ZM48.0002 113.657C47.7164 113.054 42.7833 107.819 41.8032 106.725C35.582 99.7788 29.5508 93.3083 23.2979 86.0102C18.9417 80.926 15.0612 76.2413 11.3589 71.7494C9.80966 69.8699 1.30798 59.1978 0.00914914 57.0217C-0.156716 57.4401 1.98356 66.1883 2.29962 67.3379C2.78421 69.1012 3.1591 70.7081 3.65344 72.5074C8.48451 90.0962 13.3123 96.7524 29.9482 105.253C31.9974 106.3 46.8942 113.505 48.0002 113.657Z" fill="#E50007"/>
</g>
<defs>
<clipPath id="clip0_201_10">
<rect width="256" height="150.207" fill="white"/>
</clipPath>
</defs>
</svg>
