<svg width="256" height="128" viewBox="0 0 256 128" fill="none" xmlns="http://www.w3.org/2000/svg">
<path d="M73.0951 64.4474V64.3896C73.0605 62.7888 73.3498 61.1971 73.9456 59.7108C74.5415 58.2243 75.4315 56.8735 76.5622 55.7396C77.6928 54.6055 79.0411 53.7117 80.5259 53.1116C82.0107 52.5117 83.6013 52.2177 85.2024 52.2478C86.9024 52.1842 88.5967 52.4773 90.1765 53.1079C91.7564 53.7388 93.1866 54.6932 94.3755 55.9099L91.7297 58.9714C90.8841 58.0741 89.8684 57.3535 88.742 56.8517C87.6156 56.35 86.4007 56.0769 85.1678 56.0485C80.7083 56.0485 77.4274 59.7338 77.4274 64.332V64.4014C77.4274 69.0224 80.6737 72.7077 85.1678 72.7077C86.4374 72.6947 87.6907 72.4204 88.8495 71.9015C90.0084 71.3827 91.0477 70.6307 91.9032 69.6925L94.5487 72.3728C93.369 73.7277 91.903 74.8037 90.2567 75.5229C88.6104 76.2422 86.8248 76.5868 85.0291 76.5317C83.4443 76.5492 81.8722 76.2476 80.4066 75.6445C78.9408 75.0416 77.6115 74.1496 76.4979 73.022C75.3843 71.8943 74.509 70.5539 73.9245 69.0808C73.3398 67.6078 73.0577 66.0319 73.0951 64.4474Z" fill="black"/>
<path d="M101.677 64.4466V64.389C101.766 61.2009 103.092 58.1729 105.375 55.9461C107.658 53.7193 110.718 52.469 113.907 52.46C117.096 52.4508 120.163 53.6839 122.459 55.8979C124.754 58.1116 126.098 61.1322 126.204 64.3196V64.389C126.114 67.5766 124.786 70.604 122.502 72.8295C120.218 75.0552 117.158 76.3041 113.969 76.3115C110.78 76.319 107.713 75.0847 105.419 72.8698C103.124 70.655 101.782 67.634 101.677 64.4466ZM121.883 64.4466V64.389C121.919 63.3144 121.74 62.2437 121.356 61.2391C120.973 60.2347 120.393 59.3168 119.651 58.5392C118.909 57.7613 118.019 57.1395 117.033 56.7096C116.048 56.28 114.987 56.0508 113.912 56.0361C112.842 56.0383 111.783 56.2567 110.799 56.6785C109.816 57.1002 108.928 57.7165 108.188 58.4903C107.449 59.2641 106.874 60.1793 106.498 61.1811C106.121 62.1829 105.951 63.2504 105.998 64.3196V64.389C105.959 65.4629 106.137 66.5338 106.52 67.5378C106.904 68.5419 107.485 69.4586 108.23 70.2335C108.974 71.0083 109.867 71.6257 110.855 72.0485C111.843 72.4715 112.906 72.6915 113.981 72.6953C115.049 72.6981 116.106 72.4839 117.089 72.0658C118.072 71.6479 118.96 71.0345 119.699 70.2633C120.438 69.4921 121.012 68.5788 121.388 67.5789C121.763 66.5793 121.932 65.5135 121.883 64.4466Z" fill="black"/>
<path d="M135.723 52.6533H146.178C148.65 52.5116 151.079 53.3406 152.949 54.9639C153.591 55.6438 154.093 56.4438 154.426 57.318C154.759 58.1923 154.917 59.1235 154.889 60.0587V60.128C154.942 61.7773 154.413 63.3925 153.395 64.6912C152.377 65.99 150.935 66.8896 149.321 67.2329L155.663 76.1172H150.765L144.988 67.9377H139.871V76.1172H135.758L135.723 52.6533ZM145.867 64.287C148.824 64.287 150.696 62.7388 150.696 60.3591V60.3013C150.696 57.7827 148.893 56.4079 145.843 56.4079H139.871V64.287H145.867Z" fill="black"/>
<path d="M162.883 72.697L165.367 69.7511C167.353 71.6848 170.001 72.7881 172.773 72.8357C175.326 72.8357 176.932 71.6805 176.932 69.8782C176.932 68.2029 175.996 67.2903 171.64 66.2853C166.638 65.1299 163.831 63.605 163.831 59.2841V59.2148C163.831 55.1945 167.181 52.4103 171.837 52.4103C174.908 52.3337 177.907 53.3443 180.305 55.2639L178.087 58.383C176.286 56.9035 174.05 56.0553 171.721 55.9685C169.307 55.9685 167.897 57.2163 167.897 58.7527V58.822C167.897 60.6358 168.972 61.433 173.5 62.5074C178.457 63.6628 181.01 65.4881 181.01 69.3814V69.4507C181.01 73.8409 177.544 76.4517 172.622 76.4517C169.023 76.4528 165.551 75.1143 162.883 72.697Z" fill="black"/>
<path d="M198.235 52.4912H202.059L212.376 76.1168H208.032L205.652 70.4558H194.562L192.147 76.1168H187.93L198.235 52.4912ZM204.139 66.7937L200.084 57.4126L196.064 66.7937H204.139Z" fill="black"/>
<path d="M221.156 52.6523H225.269V76.1162H221.156V52.6523Z" fill="black"/>
<path d="M236.06 52.6533H246.515C248.988 52.5116 251.416 53.3406 253.284 54.9639C254.575 56.3286 255.273 58.1472 255.226 60.0239V60.128C255.277 61.782 254.744 63.4012 253.718 64.7006C252.694 66.0003 251.243 66.8969 249.624 67.2329L255.953 76.1172H251.055L245.28 67.9377H240.115V76.1172H235.992L236.06 52.6533ZM246.215 64.287C249.161 64.287 251.044 62.7388 251.044 60.3591V60.3013C251.044 57.7827 249.231 56.4079 246.181 56.4079H240.184V64.287H246.215Z" fill="black"/>
<path d="M34.127 34.1338C34.127 34.1338 39.1179 44.2656 38.2052 48.4939C38.2052 48.4939 51.2252 52.6993 52.6692 59.6425C52.6692 59.6425 59.7974 50.2616 34.127 34.1338Z" fill="black"/>
<path d="M29.1132 49.3358C30.2479 52.072 31.1145 54.9119 31.7012 57.8156L24.342 55.0314C25.0236 50.5258 20.645 43.6748 20.645 43.6748L29.1132 49.3358Z" fill="black"/>
<path d="M15.9427 56.3146C16.8668 58.6837 17.6196 61.1161 18.1955 63.5929L11.4948 61.9293C12.188 57.4237 7.93652 51.9707 7.93652 51.9707L15.9427 56.3146Z" fill="black"/>
<path d="M30.5227 45.4795C30.5227 45.4795 60.3753 66.448 62.3392 74.5811C63.8296 80.7042 59.5089 86.3535 59.5089 86.3535C59.5089 86.3535 57.1983 70.3874 0 94.637C2.92309 91.4844 5.15298 87.7543 6.5459 83.6869C7.93879 79.6197 8.46379 75.3056 8.087 71.023C7.76169 67.4648 6.81135 63.9919 5.27966 60.764L18.681 67.8806C18.681 68.0886 18.681 68.2966 18.7388 68.5159C19.244 73.7541 18.8533 79.04 17.5835 84.147C20.4309 78.1796 21.6087 71.5522 20.9916 64.9692C20.65 60.9481 19.6509 57.0102 18.034 53.3125L32.3597 62.8666C32.4173 63.3402 32.4521 63.814 32.4981 64.2991C33.0665 70.0758 32.5412 75.9077 30.9502 81.4899C33.9546 75.9488 35.4925 69.7319 35.4176 63.4291C35.3429 57.1264 33.6578 50.9477 30.5227 45.4795Z" fill="black"/>
</svg>
