<svg width="256" height="256" viewBox="0 0 256 256" fill="none" xmlns="http://www.w3.org/2000/svg">
<g clip-path="url(#clip0_201_84)">
<path d="M128 32.0002C126.55 32.0002 125.1 32.0002 123.7 32.1002L104.05 86.1002H121.15C131.3 86.1002 136.8 93.9002 133.3 103.5L109.1 170H88.75L114.75 98.7002H99.5L73.5 170H53.2L83.7 86.0002L102.15 35.5002C81.6582 41.2251 63.6488 53.5953 50.9511 70.6675C38.2534 87.7397 31.5869 108.546 31.999 129.819C32.411 151.091 39.8783 171.624 53.2276 188.192C66.5769 204.76 85.0518 216.423 105.75 221.35L123.6 172.35L155 86.0002H192.5C202.65 86.0002 208.15 93.8502 204.65 103.45L183.4 161.9C182.429 164.208 180.825 166.194 178.772 167.628C176.719 169.062 174.301 169.884 171.8 170H144.8L125.2 223.9L128.05 223.95C153.511 223.95 177.929 213.836 195.932 195.832C213.936 177.829 224.05 153.411 224.05 127.95C224.05 102.489 213.936 78.0714 195.932 60.0679C177.929 42.0645 153.511 31.9502 128.05 31.9502L128 32.0002ZM170.8 98.6502L149.4 157.35H164.7L186.1 98.6502H170.8Z" fill="#0096D6"/>
</g>
<defs>
<clipPath id="clip0_201_84">
<rect width="256" height="256" fill="white"/>
</clipPath>
</defs>
</svg>
