<svg width="256" height="78" viewBox="0 0 256 78" fill="none" xmlns="http://www.w3.org/2000/svg">
<path d="M127.96 5.304H118.66V16.784H113.648V25.064H118.66V54.064H127.964V25.064H133.084V16.784H127.964V5.304H127.96ZM104.928 0C101.512 0 98.824 2.688 98.824 6.176C98.824 9.588 101.512 12.28 104.928 12.28C108.488 12.28 111.18 9.588 111.18 6.176C111.18 2.688 108.488 0 104.928 0ZM252.8 15.912C251.2 15.912 249.968 14.672 249.968 13.072C249.968 11.552 251.208 10.312 252.8 10.312C254.328 10.312 255.56 11.552 255.56 13.072C255.56 14.672 254.328 15.912 252.8 15.912ZM252.8 9.884C250.988 9.884 249.532 11.336 249.532 13.076C249.532 14.896 250.988 16.348 252.8 16.348C254.544 16.348 256 14.908 256 13.108C256 11.376 254.544 9.908 252.8 9.908V9.884ZM143.88 31.536C145.112 26.596 148.892 23.832 153.76 23.832C158.628 23.832 162.26 26.52 163.424 31.536H143.88ZM153.976 15.616C142.788 15.616 134.284 24.196 134.284 35.604C134.284 46.868 142.084 55.152 154.124 55.152C160.844 55.152 166.804 52.68 171.164 48.032L164.916 41.856C161.864 44.76 158.596 46.868 154.38 46.868C149.3 46.868 145.44 43.988 144.14 39.108H173.124V36.868C173.124 24.148 165.284 15.66 154.02 15.66L153.976 15.616ZM236.304 15.616C231.728 15.616 227.804 17.364 225.044 20.344V1.016H215.764V54.056H225.084V33.784C225.084 28.416 228.508 24.704 234.164 24.704C239.484 24.704 242.384 27.976 242.384 33.784V54.064H251.692V32.12C251.692 21.8 245.212 15.624 236.356 15.624L236.304 15.616ZM252.072 13.008V11.84H252.8C253.384 11.84 253.6 12.06 253.6 12.424C253.6 12.784 253.384 13.008 252.8 13.008H252.072ZM254.032 12.424C254.032 11.704 253.528 11.408 252.8 11.408H251.64V14.748H252.072V13.468H252.8L253.6 14.788H254.108L253.24 13.416C253.748 13.336 254.04 13.056 254.04 12.468L254.032 12.424ZM196.192 24.632C200.112 24.632 203.312 26.672 205.792 29.504L212.252 23.104C208.62 18.528 202.88 15.624 196.34 15.624C185.08 15.624 176.212 24.196 176.212 35.384C176.212 46.576 185.08 55.152 196.34 55.152C202.88 55.152 208.62 52.244 212.252 47.672L205.788 41.272C203.388 44.032 200.116 46.14 196.124 46.14C190.164 46.14 185.604 41.46 185.604 35.38C185.604 29.26 190.204 24.62 196.204 24.62L196.192 24.632ZM100.352 54.06H109.652V16.78H100.352V54.06ZM33.064 46.144C27.104 46.144 22.384 41.424 22.384 35.312C22.384 29.28 27.104 24.632 33.064 24.632C39.092 24.632 43.816 29.28 43.816 35.384C43.816 41.492 39.096 46.144 33.064 46.144ZM33.064 15.624C21.796 15.624 12.932 24.196 12.932 35.384C12.932 46.576 21.796 55.152 33.064 55.152C44.324 55.152 53.184 46.576 53.184 35.384C53.184 24.196 44.324 15.624 33.064 15.624ZM0 54.064H9.304V1.012H0V54.064ZM76.52 46.144C70.56 46.144 65.84 41.424 65.84 35.312C65.84 29.28 70.56 24.632 76.52 24.632C82.548 24.632 87.272 29.28 87.272 35.384C87.272 41.492 82.552 46.144 76.512 46.144H76.52ZM96.28 24.196V16.784H83.2C81.096 16.064 78.84 15.624 76.52 15.624C65.252 15.624 56.388 24.196 56.388 35.384C56.388 46.576 65.252 55.152 76.516 55.152C87.756 55.152 96.636 46.576 96.636 35.384C96.636 31.608 95.596 27.904 93.556 25.144L96.236 24.196H96.28ZM76.52 67.284C70.56 67.284 65.84 62.636 65.84 56.604H56.388C56.388 67.796 65.252 76.364 76.516 76.364C87.756 76.364 96.636 67.796 96.636 56.604H87.2C87.2 62.636 82.472 67.284 76.52 67.284Z" fill="black"/>
</svg>
