<svg width="256" height="62" viewBox="0 0 256 62" fill="none" xmlns="http://www.w3.org/2000/svg">
<g clip-path="url(#clip0_201_17)">
<path d="M44.1081 59.9442C44.1081 60.0733 44.1512 60.0303 44.0221 60.0303C44.0221 59.729 43.979 60.0303 44.1081 59.9442ZM59.4277 0H59.6429C60.1162 0.0430324 60.4605 0.387292 60.5465 0.817616C60.6756 1.42007 60.5035 1.03278 60.8047 1.50614C61.0629 1.89343 61.0199 2.49588 60.6326 2.84014C60.1592 3.27047 59.5138 2.84014 58.3519 3.35653C58.0076 3.52866 58.1367 3.57169 57.9216 3.82989C57.7494 4.04505 57.6203 4.08808 57.4052 4.26021C57.0179 4.51841 56.8888 4.9057 56.5015 5.16389C56.3294 5.29299 56.1142 5.37906 55.9421 5.50815C55.1675 6.02454 54.9954 6.15364 53.8765 6.15364C53.9626 6.54093 54.3929 7.10035 54.565 7.8319C55.0814 10.3278 52.1122 12.4364 49.5733 10.0696C49.186 9.6823 48.8417 9.20894 48.4544 8.82165C46.9053 7.35855 46.0446 8.56346 46.4749 9.89746C46.6471 10.4999 46.9913 10.9733 47.2925 11.4466C47.5938 11.92 47.938 12.3503 48.2823 12.8237L52.8437 17.7294C53.0589 17.9445 53.188 18.1167 53.4032 18.3749C53.9626 18.9773 54.522 19.6658 54.9954 20.3543C55.1675 20.6125 55.2966 20.7847 55.4687 21.0429C56.7166 23.0654 57.4482 25.0449 56.6736 27.4547C55.4257 31.4997 50.9933 33.5653 46.9053 32.1883C46.6901 32.1022 46.1737 31.887 46.0446 31.9301L44.4094 32.6616C42.5159 33.3501 40.2352 33.6083 38.2557 33.0489C37.6533 32.8768 36.9217 32.4895 36.6205 32.4034C36.3193 32.9198 35.7599 33.3501 35.2435 33.6514C32.8767 35.1575 30.9402 34.9423 29.3911 35.6739C30.2517 37.3091 32.6185 37.6964 33.9955 36.6206C34.5119 36.1903 34.5549 35.4157 35.2435 35.2866C37.223 34.9423 36.7926 38.2558 34.2967 39.5468C32.5755 40.4075 30.5099 40.3214 28.8316 39.3747C27.7128 38.7722 27.1964 38.0407 26.9382 37.8255C26.68 38.3849 26.5939 39.3747 26.8091 40.0632C27.6267 42.6021 31.7578 41.7415 33.7804 41.3542C35.975 40.9239 38.0836 40.2784 40.2783 39.9771C41.4401 39.805 42.9032 39.7189 44.0221 39.848C46.0446 40.1062 48.0241 40.9669 48.9708 42.8173C49.7024 44.2373 49.7454 45.6144 49.272 47.1205C48.7987 48.4976 47.9811 49.2721 46.7762 49.8746C47.0774 50.3049 47.2925 50.434 47.4647 51.0365C47.8089 52.0693 47.4216 53.016 47.5507 53.4463C47.6798 53.7475 47.7229 53.7906 47.7659 54.1778C47.852 54.8233 47.2495 56.3295 46.8622 56.8028C46.604 57.104 46.6901 56.9749 46.518 57.4053C46.3028 57.9217 46.0016 58.0077 45.9585 58.6102C45.9155 58.8253 45.8294 59.1696 45.8725 59.3848C45.9585 59.8581 46.3028 60.2454 45.9585 60.8048C45.8294 61.063 45.5712 61.2782 45.227 61.3212H44.9688C44.8827 61.3212 44.7967 61.2782 44.7106 61.2352C44.2372 61.02 44.6245 61.063 44.0651 61.1491C43.85 61.1921 43.5918 61.1061 43.4196 60.977C43.0754 60.7618 42.8172 60.2454 43.0754 59.686C43.3336 59.1266 43.5057 59.0835 43.6348 58.4381C43.6778 58.0508 43.7639 57.9647 43.6348 57.7065C43.5057 57.4483 43.4196 57.3192 43.4196 57.018C43.3766 56.5016 43.4196 56.6737 43.2475 56.2434C43.0754 55.8131 43.0754 55.2106 43.0323 54.8233C42.9893 54.5221 42.9893 54.2209 43.0323 53.9196C43.0754 53.3602 43.3766 53.102 43.6348 52.7147C43.0323 52.8438 42.2147 52.6717 41.6983 52.4996C41.1819 52.3274 40.6656 51.9402 40.4074 51.5098C39.6758 50.4771 39.8049 48.9709 40.5795 48.1533C42.1287 46.5181 45.0118 47.0345 45.227 45.9586C45.3991 45.141 44.8827 44.7968 44.3663 44.5816C42.559 43.8931 38.1697 45.098 36.5775 45.4853C33.6082 46.2168 31.7578 46.6902 28.7025 46.6902C23.4956 46.6902 20.1391 41.182 22.5919 36.1903C23.0653 35.2005 23.8399 34.3399 24.5714 33.6514C24.7866 33.4792 25.0878 33.3501 25.1308 33.0489C25.303 31.9301 25.0878 31.7579 25.5612 30.1227C25.9054 28.9178 26.3357 27.9281 26.9812 27.0244C27.2394 26.6371 27.6698 26.0777 28.014 25.7764C28.3152 25.5182 28.9607 24.9158 29.305 24.8297C29.305 24.5285 29.1329 24.1412 29.0898 23.7969C28.7456 22.0756 29.1759 20.2252 29.6923 18.6761C29.8214 18.2458 30.0365 17.0839 30.1656 16.7827C29.4771 16.7827 29.262 16.8687 28.7456 17.0839C28.3583 17.299 28.014 17.5142 27.7558 17.8154C26.0776 19.881 27.4976 21.1289 27.5407 21.6023C27.6267 22.1187 27.2394 22.549 26.9382 22.6781C26.0776 23.0654 25.1308 21.9465 24.8296 21.5162C24.3563 20.7416 24.1411 19.924 24.3132 18.7621C24.5714 16.9117 25.5181 15.5777 26.9812 14.588C27.4546 14.2868 28.7025 13.6413 29.3911 13.6413C29.262 13.1249 28.2722 12.6085 27.7989 12.4364C26.9382 12.1351 26.0776 12.4794 25.6042 12.8667C24.6144 13.6843 23.9259 14.9753 23.4526 16.3093C22.4628 19.0634 21.7743 22.0326 20.6124 24.7437C20.1821 25.7764 19.7087 26.594 19.0633 27.4547C18.4608 28.2723 17.7293 28.9178 16.8686 29.4342C14.0715 31.0694 10.4998 29.5633 9.46703 27.0244C9.12277 26.1637 9.07974 25.8195 9.07974 24.6576C8.13302 25.1309 6.92812 24.5285 6.2396 23.9691C5.29288 23.1945 4.90559 23.883 3.91585 22.506C3.78675 22.2908 3.61462 22.2047 3.44249 21.9896C3.18429 21.6453 3.0552 21.0859 2.75397 20.7416C2.23758 20.1822 2.71094 20.2252 1.97939 19.6228C0.989639 18.8482 0.559315 19.3216 0.12899 18.633C-0.172237 18.0736 -0.000107061 17.6433 0.387185 17.299C0.516282 17.213 0.47325 17.256 0.559315 17.213C0.860542 16.9548 0.774477 16.5245 1.29087 16.2663C2.45274 15.7499 2.62487 17.1269 3.14126 17.5572C3.44249 17.8154 3.61462 18.0306 4.04494 18.0736C4.6474 18.1167 4.81953 18.3749 5.55108 18.5039C6.02443 18.59 7.10025 19.1494 7.48754 19.4076C7.91786 19.7089 8.00393 19.9671 8.26212 20.4404C8.60638 20.1822 9.20884 18.3749 10.9732 18.3318C12.5223 18.2888 13.426 19.0634 13.8133 20.2252C14.5449 22.2908 12.0059 25.217 13.9424 25.6043C16.1801 26.0777 18.0735 18.2027 18.6329 16.1372C18.8051 15.5777 19.0202 14.9323 19.2354 14.3728C20.3542 11.0163 22.3768 7.44461 26.3788 7.27248C26.68 7.27248 26.723 7.22945 26.8952 7.22945L28.4443 7.44461C31.4996 8.2192 33.4791 10.4569 34.2537 13.4692C34.4258 14.1146 34.2537 14.3298 34.8562 14.6741C35.7168 15.1905 36.4053 15.879 37.0939 16.5675C37.6963 17.1699 38.1266 17.9015 38.557 18.633C39.2024 19.6658 39.5897 21.0429 39.6328 22.2908C40.4074 22.4629 41.0098 22.6781 41.6983 23.0654C42.9032 23.7109 43.7639 24.7006 44.7106 25.6473C45.0118 25.9486 45.7434 26.8522 46.1307 26.9813C46.1737 26.7662 46.3028 26.6371 46.3889 26.3789C46.9053 24.8728 46.0876 23.1515 44.6676 22.549C44.0221 22.2908 43.7209 22.506 43.2905 22.3769C42.0856 21.9896 42.2578 20.3113 44.4524 20.0962C47.0774 19.838 49.229 22.549 49.5733 25.0449C49.6593 25.8195 49.5733 26.6371 49.4011 27.3256C49.3581 27.5408 49.272 27.7559 49.272 27.9711C49.9606 27.9711 50.9073 27.4117 51.2085 27.0244C52.9728 24.9158 50.3048 22.0326 48.9708 20.4404L47.5938 18.9773C46.8192 18.2027 45.3131 16.5245 44.5815 15.6208C44.4524 15.4917 44.4094 15.4056 44.2803 15.2765C42.8602 13.4261 40.7516 10.0696 42.3008 6.97126C43.2905 4.99176 45.4852 3.78685 47.7659 4.08808C49.0999 4.26021 49.272 4.73357 49.7884 4.86267C50.0036 3.91595 50.6921 3.3135 51.5097 2.88317C52.6286 2.32375 51.811 3.01227 52.6286 2.19465C53.0159 1.80736 53.188 1.67827 53.7904 1.54917C54.0486 1.50614 54.3499 1.4631 54.565 1.42007C55.1245 1.33401 56.5876 1.33401 57.0609 1.37704C57.3621 1.42007 57.5773 1.29097 57.7925 1.20491C58.8252 0.645487 58.8252 0.0430324 59.4277 0ZM45.0118 60.0733C45.0549 60.1594 45.0979 60.1163 45.0118 60.2454L44.9258 60.0733L44.6245 59.4708C44.2803 59.643 44.3663 59.7721 44.0651 59.9442C44.3663 59.0835 44.4954 59.7721 44.7106 57.5344C44.5385 57.3192 44.3663 57.2762 44.3233 56.8889C44.2372 56.0282 43.979 55.8561 43.979 55.1246C43.979 54.7373 43.893 54.5651 43.936 54.2209C43.979 53.5324 44.5385 53.3602 44.6676 52.8438C45.1409 50.8213 41.5262 52.8008 40.8807 50.4771C40.1492 47.766 44.2803 48.1963 45.5712 47.0775C46.4749 46.3459 46.2167 44.8828 45.4852 44.1943C44.0221 42.8603 40.4074 43.5488 38.5139 43.9792C34.5119 44.8828 28.3152 47.1636 24.9587 44.4525C23.6247 43.3767 22.2907 41.2681 22.7641 38.514C23.0653 36.6636 24.5284 34.512 26.1206 33.6514C25.9915 31.6288 26.4648 29.9075 27.2825 28.3584C27.971 27.0674 29.1759 25.6043 30.639 25.217C30.5529 24.9158 30.2947 24.6576 30.1656 24.2273C29.7353 23.0654 29.8644 21.6883 30.1226 20.5695C30.4669 19.0203 31.1554 17.6863 31.1554 16.0081C30.8542 15.5777 29.0468 15.879 28.6165 16.0511C27.8419 16.3523 27.2825 16.8257 26.8952 17.299C26.4648 17.8585 26.1206 18.4609 25.9915 19.3216C25.8194 20.5265 26.1206 20.7847 26.4648 21.7314C26.1636 21.6023 25.7763 21.1289 25.6042 20.8277C24.3563 18.4609 26.5509 14.4589 30.9402 14.4589C30.9402 13.297 29.1759 11.6618 27.7558 11.4036C25.6472 10.9733 24.4423 12.5224 23.7108 13.5552C21.0428 17.3421 20.4833 29.2621 14.2006 29.176C12.3072 29.133 10.9732 27.9281 10.4137 26.6801C10.0265 25.8195 10.0265 25.0018 10.2416 24.0121C10.4998 22.8502 11.1023 22.0756 10.758 21.7744C10.4568 21.8174 10.3707 22.0756 10.2416 22.3338C9.89735 23.0654 9.38097 23.7109 8.43425 23.84C7.7027 23.926 7.22934 23.5818 6.84205 23.2805C6.62689 23.1084 6.49779 22.8933 6.19656 22.8072C5.55108 22.592 5.12075 22.7642 4.73346 22.0756C4.5183 21.7314 4.43223 21.7314 4.21707 21.4732C4.04494 21.258 4.00191 20.9998 3.87281 20.6986C3.70068 20.3974 3.57159 20.3113 3.44249 20.0962C3.14126 19.6228 3.57159 19.6658 3.09823 19.3216C2.23758 18.6761 2.10848 18.3749 0.989639 18.1597L1.85029 18.1167L1.72119 17.256C1.93635 17.8585 2.19455 18.1167 2.71094 18.5039C4.00191 19.5798 3.39946 18.8912 4.17404 19.1064C4.47527 19.1925 4.60436 19.3646 5.03469 19.4507C5.42198 19.5367 5.63714 19.4937 5.93837 19.7089L6.66992 20.0962C7.53057 20.5265 7.35844 21.8605 8.34819 21.8174C8.95064 21.8174 9.12277 21.0859 9.424 20.6125C10.0265 19.6658 11.0162 18.8912 12.3502 19.7949C13.469 20.5695 12.7805 22.2478 12.4793 23.3236C12.0059 24.8728 12.092 25.9055 13.3399 26.508C15.6207 27.5838 17.2559 23.926 17.9014 22.2908C19.4506 18.0736 20.3973 11.7479 23.3665 9.51017C25.346 8.04707 28.1001 7.8319 30.3378 9.25197C31.2845 9.85443 31.973 10.586 32.5324 11.5757C33.5652 13.3831 33.307 14.8892 33.7373 15.1474C34.4258 15.6208 34.7271 15.6208 35.5877 16.3954C37.4811 18.0736 38.9443 20.3543 38.6 23.2805C40.6655 23.1515 42.0426 24.3564 43.0323 25.26C43.3766 25.5613 43.5487 25.8195 43.8069 26.1207C44.9258 27.2826 45.0118 27.3686 46.3028 28.3153C46.7331 28.0141 47.2495 27.1104 47.4216 26.3789C47.852 24.7437 47.1204 23.0654 45.8725 22.0756C45.0549 21.4302 44.5385 21.4732 43.5918 21.3441C45.7434 20.0531 48.8417 22.8502 48.5405 26.2068C48.4544 27.4117 48.1102 27.9281 47.6798 28.8317C48.8417 29.4772 51.3376 28.5305 52.1982 27.2395C53.188 25.7334 52.5425 23.7539 51.7249 22.4199C51.2085 21.6023 50.606 20.7847 50.0036 20.1392L46.604 16.4384C45.3561 15.1905 44.0651 13.5122 43.2905 11.7909C41.3971 7.53068 44.5385 4.26021 47.895 5.0348C49.8745 5.50815 50.7782 7.53068 51.1655 7.70281C51.9831 8.04707 50.9503 6.54093 50.8642 6.28274C50.4339 5.12086 50.8642 4.08808 52.0261 3.61472C53.0159 3.22743 52.5425 3.61472 53.2741 2.79711C53.6613 2.36678 54.1777 2.36678 54.8232 2.23769C55.2535 2.15162 55.4257 2.23769 55.813 2.28072C56.1572 2.32375 56.4154 2.15162 56.7167 2.19465C57.147 2.23769 56.9748 2.45285 57.4912 2.28072C57.8785 2.10859 58.6531 1.89343 58.9543 1.63523C59.1695 1.4631 59.2125 1.29097 59.4277 1.11884C59.3416 1.37704 59.1695 1.54917 59.0834 1.76433C59.2556 1.89343 59.5998 1.93646 59.858 1.97949C59.1695 2.10859 59.2125 1.85039 58.3949 2.19465C58.0076 2.36678 57.5773 2.45285 57.2761 2.66801C57.147 3.0553 57.19 3.14137 56.8458 3.35653C56.3724 3.65776 56.1572 4.17415 55.6839 4.43234C55.5548 4.51841 55.4257 4.51841 55.3396 4.60447C55.1675 4.69054 55.1675 4.73357 55.0384 4.86267C54.3499 5.42209 53.8765 4.9057 53.188 5.12086C52.5855 5.29299 52.4134 5.89544 52.7577 6.45487C53.3601 7.40158 53.9626 8.60649 53.0159 9.59623C51.9831 10.672 50.6921 9.94049 50.0036 9.20894C49.4872 8.60649 48.5835 7.48764 47.5938 7.18642C46.3458 6.84216 45.227 7.961 45.227 9.12288C45.227 11.0593 47.1634 13.4261 48.4114 14.6741C48.5835 14.8462 48.7556 15.0614 48.9278 15.2765C49.0999 15.4917 49.3151 15.6208 49.4872 15.8359C50.2188 16.6105 51.5528 17.9015 52.1552 18.6761L53.145 19.838C54.3068 21.215 55.5548 22.9793 55.7699 24.8728C56.1142 27.7559 54.3929 29.7784 52.8437 30.7252C51.2946 31.6719 49.272 31.887 47.4216 31.4137C46.8622 31.2846 46.2598 30.9403 45.7864 30.8543C45.4422 31.0264 45.227 31.2416 44.7967 31.4567C44.4524 31.6288 44.0221 31.801 43.6778 31.9301C41.6123 32.6186 39.1164 32.7477 37.1369 31.7149C36.7926 31.5428 36.4914 31.2846 36.1902 31.1125C35.3726 33.3071 32.3603 33.8665 30.2517 34.426C29.1329 34.7272 28.5734 35.0714 27.971 35.2436C28.057 35.6739 28.2292 36.0612 28.4443 36.4054C29.0898 37.4382 29.8644 38.0837 31.2414 38.2989C33.0058 38.6001 34.5549 37.9116 35.3726 36.4054C35.5447 38.5571 32.7045 39.4177 30.9833 39.2026C29.0038 38.9444 27.7988 37.7394 26.8091 36.1903C25.9054 37.0509 25.1739 38.9444 25.7763 40.6226C27.4546 45.055 35.975 41.8275 39.4176 41.2251C43.1184 40.5796 46.7331 40.7948 48.0671 43.721C48.7556 45.2701 48.2823 47.3787 47.3356 48.2824C45.3991 50.0898 43.5057 49.4012 43.2045 50.0037C43.3766 50.434 44.0221 50.1758 44.5385 50.2189C46.0446 50.348 46.6901 51.4668 46.3028 53.102C46.1737 53.6615 46.561 53.8766 46.561 54.436C46.561 54.8233 46.3028 55.2967 46.1737 55.727C46.0016 56.2434 45.7434 56.3295 45.5282 56.7168C45.184 57.4483 45.5282 57.1901 44.8397 57.6635C44.7967 58.1368 44.7106 58.5241 44.6676 58.9975C44.7536 59.5139 44.9258 59.5139 45.0118 60.0733ZM248.512 28.1432H239.389V18.7191H248.9C251.137 18.7191 252.858 20.4404 252.858 22.549C252.858 24.4424 253.074 25.7764 251.611 27.1535C250.836 27.799 249.932 28.1432 248.512 28.1432ZM236.205 15.7929V43.5919C236.205 43.764 236.248 43.807 236.42 43.807H239.389V31.3276H245.027C245.242 31.3276 245.844 32.4465 246.016 32.7907L249.631 39.0735C249.975 39.5898 250.234 40.1062 250.535 40.6657L252.385 43.807H256C254.838 41.6124 253.16 38.9874 251.998 36.8358C251.654 36.1472 248.9 31.5858 248.856 31.3276C249.287 31.3276 249.975 31.2416 250.406 31.1555C250.922 31.0694 251.352 30.8973 251.74 30.7252C254.236 29.6924 256 27.0674 256 24.3564V22.592C256 18.7621 252.859 15.6208 249.029 15.6208H236.42C236.291 15.5777 236.205 15.6208 236.205 15.7929ZM91.0135 28.1432H81.8906V18.7191H91.4869C93.5524 18.7191 95.3167 20.4404 95.3167 22.2478C95.3167 24.0551 95.5749 25.9486 94.0258 27.1535C93.5955 27.4977 93.3373 27.6699 92.7778 27.885C92.2614 28.0572 91.659 28.1432 91.0135 28.1432ZM78.7493 43.764H81.8906V31.2846H87.5279C87.743 31.2846 87.8291 31.5858 88.0443 31.9731C88.2164 32.2743 88.3455 32.4465 88.5176 32.7477C89.2061 33.9956 90.1098 35.4157 90.7553 36.6636L94.8434 43.764H98.4581C98.3721 43.3767 96.995 41.182 96.6938 40.6657L94.4561 36.7927C93.5094 35.1145 92.1324 32.9198 91.2717 31.2846C92.2614 31.2846 93.4233 31.0694 94.1549 30.7252C94.5852 30.553 94.9295 30.3809 95.2737 30.1227C96.2204 29.4772 97.2102 28.4444 97.7266 27.4547C98.6733 25.6473 98.4581 24.0982 98.4581 22.0756C98.4581 20.7847 97.8557 19.3646 97.1241 18.4179C95.8331 16.6536 93.8536 15.5777 91.5729 15.5777H78.7493V43.764ZM157.499 18.7191H171.958L166.535 28.1002C164.728 31.1555 162.921 34.512 161.113 37.4813C160.812 37.9976 160.511 38.471 160.21 39.0304C159.908 39.5898 159.607 40.0632 159.306 40.6226L157.499 43.807H175.572C175.787 43.4197 177.294 40.9669 177.337 40.6657H162.921L163.824 39.1165C164.126 38.5571 164.427 38.0837 164.728 37.5243C166.191 35.0714 167.74 32.1883 169.203 29.7354L174.626 20.3543C174.884 19.924 177.207 15.965 177.294 15.6208H157.499V18.7191ZM116.532 43.764H119.931C120.017 43.4197 120.276 42.9033 120.405 42.5161L121.911 38.8153C122.556 37.18 123.245 35.5448 123.933 33.8665L127.892 23.9691C128.151 24.2703 134.648 40.5796 135.423 42.473C135.595 42.8603 135.81 43.3767 135.896 43.764H139.296L128.237 16.4384C128.194 16.3093 128.151 16.1802 128.064 16.0081C128.021 15.879 128.021 15.879 127.978 15.7929C127.935 15.6638 127.935 15.6638 127.849 15.5777L119.329 36.7067C118.855 37.8685 118.382 39.0304 117.909 40.1923C117.694 40.7517 117.435 41.3972 117.177 41.9566L116.532 43.764ZM196.873 18.7191H214.904C214.99 18.2458 216.582 16.0081 216.625 15.5777H196.916L196.873 18.7191ZM196.873 43.764H214.904C214.947 43.5058 216.41 41.096 216.668 40.6226H196.873V43.764ZM196.873 31.0694C196.873 31.2416 196.916 31.2846 197.088 31.2846H214.689C214.904 31.2846 215.033 30.8973 215.248 30.5961L216.195 28.9608C216.367 28.6596 216.496 28.4014 216.668 28.1432H196.873V31.0694Z" fill="#00FF00"/>
<path d="M29.692 31.0266C29.8211 30.5102 30.3805 29.9507 30.6387 29.6065C30.8539 29.3483 30.8108 29.4344 31.026 29.2192C31.4563 28.8319 31.9297 28.4876 32.5321 28.3585C32.8334 28.3155 32.9194 28.4016 33.0916 28.5307C33.0916 29.4344 32.4461 29.7786 31.7145 30.1229C31.3703 30.338 30.0793 30.9835 29.692 31.0266ZM27.9707 32.7479C28.8744 32.4897 31.3272 31.5429 32.1448 31.0696C32.8334 30.6823 33.3498 30.338 33.7801 29.8217C35.3293 27.9282 32.7043 25.9918 29.9502 28.918C29.1326 29.7786 28.1859 31.1126 27.9707 32.7479ZM34.5547 23.5389H34.3395C33.5219 23.5389 33.7801 20.8709 33.8231 20.3975C33.8661 20.0533 33.9522 19.666 33.9522 19.2787L33.9952 19.3648C34.0383 19.4508 34.0383 19.4078 34.0813 19.4939C35.0711 20.9139 35.2862 23.5389 34.5547 23.5389ZM33.3498 17.041C33.1346 18.8914 32.1018 22.291 33.2637 23.9692C33.651 24.5287 34.3825 24.8299 35.1141 24.3996C36.6633 23.4098 35.8456 20.1394 34.6838 18.4181C34.3825 18.0308 33.651 17.084 33.3498 17.041ZM38.0403 27.4549C38.0403 26.25 40.278 27.627 40.4931 27.7991L42.0423 28.961C41.0526 28.961 40.364 28.8749 39.6325 28.6167C39.2882 28.5307 38.0403 27.9713 38.0403 27.4549ZM44.323 29.6065L42.8169 28.3155C37.653 23.8401 36.1038 26.9385 37.653 28.5307C39.4173 30.338 42.0853 30.1229 44.323 29.6065Z" fill="#00FF00"/>
<path d="M27.971 32.7482C28.1861 31.1129 29.1328 29.7789 29.9505 28.9183C32.7045 25.9921 35.3295 27.9716 33.7803 29.822C33.35 30.3384 32.8336 30.7256 32.1451 31.0699C31.3275 31.5433 28.8746 32.49 27.971 32.7482ZM44.3233 29.6068C42.1286 30.1232 39.4606 30.3814 37.6533 28.531C36.0611 26.9388 37.6533 23.7974 42.8172 28.3158L44.3233 29.6068ZM33.35 17.0413C33.6512 17.0844 34.3828 18.0311 34.684 18.4184C35.8459 20.0966 36.6635 23.3671 35.1143 24.3999C34.3828 24.8732 33.6512 24.572 33.264 23.9696C32.1021 22.2913 33.1349 18.8917 33.35 17.0413ZM44.1081 59.9447C44.4094 59.8156 44.3233 59.6434 44.6675 59.4713L44.9688 60.0738H45.0548C44.9688 59.5144 44.7966 59.5144 44.8827 58.8689C44.9688 58.3955 45.0118 58.0082 45.0548 57.5349C45.7434 57.0615 45.3991 57.2767 45.7434 56.5881C45.9585 56.1578 46.2167 56.1148 46.3888 55.5984C46.5179 55.2111 46.7761 54.6947 46.7761 54.3074C46.7331 53.791 46.3458 53.5328 46.5179 52.9734C46.9052 51.3382 46.2597 50.2624 44.7536 50.0902C44.2372 50.0472 43.5487 50.2624 43.4196 49.8751C43.7208 49.2726 45.5712 49.9612 47.5507 48.1538C48.5405 47.2501 48.9708 45.1415 48.2823 43.5924C46.9483 40.6661 43.3335 40.451 39.6327 41.0965C36.1902 41.6989 27.6697 44.9694 25.9915 40.494C25.346 38.8157 26.0775 36.9223 27.0242 36.0617C28.014 37.6108 29.2189 38.8157 31.1984 39.0739C32.8767 39.2891 35.7168 38.4285 35.5877 36.2768C34.7701 37.783 33.2209 38.4715 31.4566 38.1703C30.1226 37.9551 29.348 37.3096 28.6595 36.2768C28.4443 35.9326 28.2722 35.5453 28.1861 35.115C28.7886 34.9428 29.348 34.5555 30.4668 34.2973C32.5754 33.781 35.5877 33.1785 36.4053 30.9838C36.7496 31.1129 37.0078 31.3711 37.352 31.5863C39.3315 32.576 41.8274 32.49 43.893 31.8015C44.2803 31.6724 44.6675 31.5002 45.0118 31.3281C45.4421 31.1129 45.6573 30.9408 46.0016 30.7257C46.4319 30.8117 47.0343 31.156 47.6368 31.2851C49.4872 31.7584 51.5097 31.5433 53.0589 30.5966C54.608 29.6498 56.3293 27.6273 55.9851 24.7441C55.7699 22.8507 54.522 21.1294 53.3601 19.7093L52.3704 18.5475C51.7249 17.7729 50.4339 16.4819 49.7023 15.7073C49.5302 15.4922 49.315 15.3631 49.1429 15.1479C48.9708 14.9327 48.7987 14.7176 48.6265 14.5455C47.3786 13.2975 45.3991 10.9738 45.4421 8.99427C45.4421 7.83239 46.561 6.71355 47.8089 7.05781C48.7987 7.316 49.6593 8.47788 50.2187 9.08033C50.9072 9.81189 52.1982 10.5434 53.231 9.46763C54.1777 8.47788 53.5753 7.27297 52.9728 6.32626C52.5855 5.76684 52.8007 5.16438 53.4031 4.99225C54.0916 4.77709 54.565 5.29348 55.2535 4.73406C55.3826 4.64799 55.3826 4.60496 55.5548 4.47586C55.6839 4.3898 55.7699 4.3898 55.899 4.30373C56.3724 4.04554 56.5875 3.52915 57.0609 3.22792C57.4052 3.01276 57.3621 2.96973 57.4912 2.5394C57.7924 2.32424 58.2228 2.23818 58.6101 2.06605C59.3846 1.76482 59.3416 1.97998 60.0732 1.85088C59.815 1.80785 59.4707 1.76482 59.2986 1.63572C59.3846 1.37753 59.5568 1.24843 59.6428 0.990234C59.3846 1.16236 59.3416 1.29146 59.1695 1.50662C58.8683 1.76482 58.0937 1.97998 57.7064 2.15211C57.233 2.36727 57.3621 2.10908 56.9318 2.06605C56.6306 2.02301 56.4154 2.19514 56.0281 2.15211C55.6408 2.10908 55.4687 2.02301 55.0384 2.10908C54.3929 2.23818 53.8765 2.23818 53.4892 2.6685C52.7576 3.44308 53.274 3.05579 52.2413 3.48612C51.0794 3.95947 50.6491 4.99225 51.0794 6.15413C51.1654 6.41232 52.1982 7.87542 51.3806 7.5742C50.9933 7.40207 50.0896 5.37954 48.1101 4.90619C44.7536 4.1316 41.6553 7.40207 43.5057 11.6623C44.2803 13.3836 45.5712 15.0618 46.8192 16.3098L50.2187 20.0106C50.8212 20.6561 51.4667 21.4737 51.94 22.2913C52.7576 23.6253 53.4031 25.6048 52.4134 27.1109C51.5527 28.4019 49.0569 29.3486 47.895 28.7031C48.2823 27.7994 48.6265 27.2831 48.7556 26.0781C49.0569 22.7216 45.9585 19.9245 43.8069 21.2155C44.7536 21.3446 45.27 21.3015 46.0876 21.947C47.3356 22.9368 48.0241 24.615 47.6368 26.2503C47.4647 26.9818 46.9483 27.8855 46.5179 28.1867C45.227 27.197 45.1409 27.154 44.0221 25.9921C43.7208 25.6909 43.5487 25.4327 43.2475 25.1314C42.2577 24.2278 40.8807 23.0228 38.8151 23.1519C39.1594 20.2688 37.6963 17.988 35.8029 16.2668C34.9422 15.4922 34.684 15.4922 33.9525 15.0188C33.5221 14.7606 33.7803 13.2114 32.7476 11.4471C32.1881 10.4574 31.4566 9.72582 30.5529 9.12337C28.3152 7.66026 25.5611 7.87542 23.5816 9.38156C20.5694 11.6192 19.6657 17.945 18.1165 22.1622C17.2559 23.8835 15.6206 27.5413 13.3399 26.4224C12.092 25.82 12.0059 24.7872 12.4793 23.238C12.8235 22.1622 13.469 20.4839 12.3502 19.7093C11.0162 18.7626 10.0264 19.5802 9.42398 20.527C9.12275 21.0003 8.95062 21.7319 8.34817 21.7319C7.35842 21.7749 7.53055 20.4409 6.6699 20.0106L5.93835 19.6233C5.63712 19.4512 5.42196 19.4512 5.03467 19.3651C4.60434 19.279 4.47525 19.1069 4.17402 19.0208C3.39944 18.8487 4.00189 19.4942 2.71092 18.4184C2.23756 18.0311 1.97936 17.7299 1.72117 17.1704L1.93633 17.988L1.07568 18.0311C2.19453 18.2462 2.32362 18.5044 3.18427 19.193C3.6146 19.5372 3.22731 19.4942 3.52853 19.9675C3.65763 20.1827 3.82976 20.2688 3.95886 20.57C4.08795 20.8712 4.13099 21.1294 4.30312 21.3446C4.47525 21.6028 4.60434 21.6028 4.81951 21.947C5.2068 22.5925 5.63712 22.4634 6.28261 22.6786C6.58384 22.7646 6.71293 23.0228 6.9281 23.1519C7.31539 23.4532 7.83178 23.7974 8.5203 23.7114C9.46701 23.6253 9.94037 22.9798 10.3277 22.2052C10.4568 21.947 10.5428 21.6888 10.844 21.6458C11.1883 21.947 10.5859 22.7646 10.3277 23.8835C10.1125 24.8302 10.1125 25.6909 10.4998 26.5515C11.0592 27.7994 12.4362 29.0044 14.2866 29.0474C20.5263 29.2195 21.0858 17.2995 23.7538 13.5127C24.4853 12.4799 25.7333 10.9307 27.7988 11.3611C29.1759 11.6623 30.9402 13.2545 30.9832 14.4164C26.5939 14.4164 24.3993 18.4184 25.6472 20.7852C25.8193 21.0864 26.2066 21.5597 26.5079 21.6888C26.1636 20.7421 25.8193 20.4839 26.0345 19.279C26.1636 18.3753 26.5079 17.8159 26.9382 17.2565C27.3255 16.7831 27.8849 16.3098 28.6595 16.0086C29.0898 15.8364 30.8972 15.5352 31.1984 15.9655C31.1984 17.6438 30.5099 18.9778 30.1656 20.527C29.9074 21.6888 29.7783 23.0659 30.2086 24.1847C30.3377 24.572 30.5959 24.8732 30.682 25.1745C29.2189 25.5618 28.014 27.0249 27.3255 28.3158C26.5079 29.865 26.0345 31.5863 26.1636 33.6088C24.5714 34.4695 23.1513 36.6211 22.8071 38.4715C22.3337 41.2256 23.6247 43.3342 25.0017 44.41C28.3583 47.121 34.5549 44.8403 38.5569 43.9366C40.4504 43.5063 44.0651 42.8178 45.5282 44.1518C46.3028 44.8403 46.5179 46.2604 45.6143 47.0349C44.2803 48.1108 40.1922 47.7235 40.9237 50.4345C41.5692 52.8013 45.1839 50.8218 44.7106 52.8013C44.5815 53.3177 44.0221 53.4898 43.979 54.1783C43.936 54.5226 44.0221 54.7378 44.0221 55.082C44.0221 55.8136 44.2803 55.9857 44.3663 56.8463C44.4094 57.2336 44.5384 57.2767 44.7536 57.4918C44.5384 59.7725 44.4094 59.084 44.1081 59.9447Z" fill="black"/>
</g>
<defs>
<clipPath id="clip0_201_17">
<rect width="256" height="61.2782" fill="white"/>
</clipPath>
</defs>
</svg>
