<svg width="256" height="107" viewBox="0 0 256 107" fill="none" xmlns="http://www.w3.org/2000/svg">
<g clip-path="url(#clip0_201_77)">
<path d="M27.7118 34.3204C29.8979 31.6638 31.5471 28.6159 33.1886 25.6064C32.9278 27.4244 32.3244 29.1657 31.7005 30.8865C30.7928 33.3232 29.7803 35.7216 28.6885 38.0841C33.6591 35.5912 37.3334 31.1856 40.3608 26.6343C38.7039 32.4155 35.1805 37.7748 30.1408 41.1396C33.135 40.999 36.1035 40.4953 39.0158 39.8049C37.3973 41.1192 35.5205 42.1087 33.5185 42.6891C29.6882 43.8091 25.6125 43.6761 21.79 44.8318C20.5652 45.2128 19.476 46.1077 19.0311 47.335C18.3765 49.0737 18.668 50.9786 18.8444 52.7787C19.9132 51.398 21.5726 50.6513 23.2423 50.2959C20.8516 51.0042 20.1126 53.7094 19.7623 55.8904C19.3814 57.4783 19.9976 59.2707 19.0771 60.723C18.2256 62.0219 16.446 62.0986 15.0551 61.935C13.2243 61.4031 11.9612 59.8357 10.8029 58.4167C12.2399 59.3065 13.8277 60.1323 15.5562 60.1579C16.1622 60.1886 16.5662 59.6926 16.9267 59.286C16.5176 58.5189 15.8963 57.8567 15.0372 57.6061C15.8017 57.6854 16.5688 57.6291 17.3103 57.4348C17.3282 56.0183 16.9727 54.6043 16.2901 53.3617C14.917 50.9352 15.0142 48.028 15.1215 45.3304C14.6485 45.4046 14.0093 45.4148 13.7971 45.9364C13.209 47.0154 12.6874 48.1609 12.557 49.3959C12.3473 48.8641 12.1172 48.3399 11.8973 47.8132C11.2402 48.2964 10.4782 48.593 9.68045 48.7413C9.21765 49.4777 8.86991 50.2806 8.6807 51.132C8.32784 50.4033 7.98778 49.6695 7.70396 48.9101C7.04428 49.0661 6.0164 48.8462 5.70957 49.626C5.15728 51.3775 5.75048 53.2185 6.32323 54.8856C5.58428 54.3665 4.85045 53.8091 4.33907 53.0523C3.39302 51.7329 3.08363 50.099 2.31912 48.6851C1.38073 46.9234 0.721048 45.0364 0 43.1801C2.65663 43.6147 5.30047 42.6073 7.53776 41.247C10.6009 39.36 13.2039 36.798 15.4488 34.0033C17.2156 34.6732 19.0055 35.3994 20.9053 35.5554C21.6979 35.65 22.2758 35.0031 22.7514 34.4687C23.9275 33.0547 24.779 31.4106 25.6228 29.7844C25.2622 31.9885 24.756 34.1619 24.242 36.3327C25.6381 36.2048 26.8577 35.4019 27.7118 34.3204ZM9.256 43.0445C11.1916 42.8425 13.1348 42.6968 15.05 42.3516C15.4565 40.5567 15.9167 38.7745 16.3795 36.9923C14.2778 39.3038 11.772 41.2112 9.256 43.0445Z" fill="#E50B22"/>
<path d="M40.8057 25.6338C49.0952 27.1091 56.6918 31.9187 61.7238 38.6536C65.8992 44.1944 68.3308 50.8858 69.4661 57.6897C70.2485 62.3203 70.4709 67.0327 70.3226 71.722C68.9777 66.6389 66.7864 61.5685 62.9383 57.8738C61.9079 56.892 60.7266 56.0917 59.4788 55.4192C60.2612 60.9242 60.2638 66.7949 57.9625 71.9598C58.0316 67.8764 57.354 63.5118 54.7434 60.2287C54.4954 63.7982 53.107 67.3957 50.4171 69.8325C49.4046 70.776 48.2028 71.4817 46.9679 72.0902C48.2565 70.5049 49.1412 68.5668 49.2691 66.511C44.1911 70.5714 37.492 71.855 31.1432 72.0493C24.6793 72.057 18.2129 72.0493 11.749 72.0519C12.1172 68.3827 14.4414 65.1866 17.4688 63.1973C20.5959 60.8859 24.5642 59.9705 27.4484 57.3036C28.9775 55.9101 30.348 54.0129 30.2636 51.8497C30.2073 50.1571 28.8598 48.761 27.2848 48.3135C25.5333 47.7817 23.5364 47.2933 21.7977 48.1167C20.9948 48.4567 20.5704 49.2443 20.2277 49.996C20.1178 48.7968 20.601 47.5644 21.6315 46.897C23.7179 45.4677 26.3771 45.2043 28.8419 45.3271C31.8054 45.4396 34.7177 46.9303 36.4436 49.3593C38.0008 51.6657 38.1286 54.5447 38.4124 57.2244C37.919 56.5161 37.3411 55.8769 36.7274 55.276C37.4689 58.3443 36.482 61.4867 35.4362 64.3607C35.5922 62.9084 35.5743 61.3947 34.9785 60.0344C34.4288 63.0516 33.0992 65.9434 30.9949 68.196C31.5062 67.0173 31.923 65.7747 31.9153 64.4732C30.8619 65.3298 29.788 66.2656 29.2101 67.521C28.5811 68.9503 28.7192 70.5995 29.2536 72.0365C34.9862 69.8529 40.0489 65.1226 41.3836 58.9733C42.5418 61.1799 42.2452 63.7803 41.8029 66.1377C44.5337 63.3686 45.7431 59.3466 45.4465 55.5164C45.2931 53.0208 44.5771 50.5943 43.6106 48.3008C46.9474 50.6531 49.1975 54.3888 49.8469 58.4082C50.0591 52.6705 49.5606 46.897 48.2974 41.2948C46.9832 35.6262 44.7433 30.0087 40.8057 25.6338ZM80.5503 33.4221C84.8331 35.6108 89.8395 36.0251 93.9382 38.6229C96.1474 39.9652 97.9628 42.1105 98.4665 44.693C99.1211 47.7868 98.5637 51.4151 96.0911 53.5961C94.7436 54.9027 92.9666 55.5317 91.2893 56.2758C94.8996 59.5307 98.5304 62.7677 102.281 65.8616C102.609 59.9142 102.767 53.949 102.619 47.9914C102.54 47.2831 102.652 46.5007 102.292 45.8615C101.481 44.7748 100.369 43.9719 99.2975 43.1639C102.233 43.2048 105.163 43.5347 108.101 43.3889C111.335 43.2943 114.58 43.2841 117.807 42.9952C117.597 44.918 117.362 46.8484 117.403 48.7891C116.173 47.5899 114.744 46.3677 112.964 46.1913C111.236 46.0149 109.52 46.4265 107.855 46.8459C107.434 49.5153 107.587 52.2358 107.551 54.9283C109.919 54.8413 112.325 54.9589 114.657 54.4808C115.26 53.8365 115.82 53.1461 116.498 52.5708C116.447 54.7774 116.498 56.9866 116.541 59.1932C113.793 57.7715 110.497 57.521 107.559 58.4798C107.648 61.0955 107.712 63.7138 107.832 66.327C110.563 66.2681 113.414 66.8665 116.048 65.8923C117.104 65.5624 117.551 64.4527 117.919 63.5092C118.083 64.7749 118.692 65.9153 119.211 67.0608C119.587 64.1178 119.934 61.1697 120.167 58.2113C120.558 53.0796 119.97 47.9479 119.441 42.8494C122.696 42.8878 126.015 42.852 129.175 43.7367C132.156 44.6853 135.173 46.1223 137.06 48.7175C139.016 51.3358 139.507 54.7263 139.346 57.9147C139.697 57.9531 140.049 57.9914 140.405 58.0323C140.415 53.095 140.159 48.1627 140.088 43.2253C144.235 43.2841 148.779 43.0054 152.417 45.3552C155.509 47.278 156.731 51.7168 154.895 54.8899C153.627 56.984 151.21 57.8738 148.999 58.5872C151.003 60.9114 152.97 63.4428 155.713 64.9309C154.982 64.9999 154.251 65.0766 153.524 65.1584C154.317 65.8028 155.191 66.3346 156.079 66.8383C158.365 59.4386 159.904 51.8344 161.896 44.3529C165.933 43.9796 169.988 43.8185 174.033 43.573C172.893 44.3989 171.768 45.2453 170.643 46.0916C173.54 52.916 176.375 59.7659 179.262 66.5929C179.38 66.9662 179.761 67.1221 180.065 67.3216C180.957 67.8406 181.883 68.3034 182.814 68.7509C178.948 68.6128 175.077 68.7356 171.21 68.6946C172.185 68.0835 173.182 67.5057 174.21 66.9917C173.202 64.3275 172.18 61.6708 171.187 59.0014C168.702 59.1139 166.224 59.3517 163.755 59.6253C163.051 62.2768 162.389 64.9437 161.671 67.5926C162.606 67.971 163.555 68.3188 164.473 68.7432C159.817 68.4083 155.171 68.9555 150.523 69.1651C149.08 65.7261 147.495 62.3484 145.841 59.0091C145.721 59.0091 145.475 59.0116 145.352 59.0142C145.276 61.6708 145.212 64.3351 145.281 66.9943C146.03 67.4085 146.736 67.8918 147.457 68.3546C144.458 68.6793 141.453 68.958 138.444 69.1753C139.415 65.7414 140.118 62.2257 140.377 58.6613C140.016 58.5949 139.653 58.5258 139.295 58.4619C139.149 60.3694 138.666 62.3024 137.559 63.8902C136.613 65.2531 135.245 66.2681 133.772 66.9943C130.338 68.664 126.488 69.385 122.683 69.2827C121.312 69.229 119.947 69.3518 118.589 69.518C113.67 69.4285 108.743 69.2086 103.826 69.5103C106.638 72.7857 109.584 76.0458 113.222 78.4237C109.962 78.595 106.705 78.8507 103.447 79.1115C100.136 74.3761 96.7866 69.6637 93.5649 64.867C91.8262 62.2103 89.9878 59.5921 88.648 56.7028C88.1826 56.7411 87.7224 56.7795 87.2621 56.8178C87.188 60.6072 86.9885 64.4016 87.0729 68.1909C87.8477 68.8199 88.671 69.3927 89.4508 70.0191C86.1499 70.4359 82.8464 70.8194 79.5352 71.1007C80.5963 66.2375 81.5602 61.3103 81.7392 56.3243C80.1284 55.9766 78.5508 55.4575 77.0626 54.7442C78.6377 55.0638 80.2179 55.3706 81.821 55.5215C81.8517 48.1397 81.1486 40.7732 80.5503 33.4221ZM87.7684 40.5994C87.5306 45.524 87.3516 50.4537 87.2187 55.3834C89.1236 54.9717 91.2611 54.0947 92.0308 52.1489C93.1123 49.2212 93.074 45.8615 91.8952 42.9671C91.3302 41.6835 90.4225 40.3002 88.9471 40.0164C88.5073 39.9371 87.7198 39.9883 87.7684 40.5994ZM145.209 46.9277C145.097 49.8681 145.263 52.8137 145.324 55.7567C147.247 55.2607 149.226 54.3836 150.39 52.7012C151.479 51.1977 151.031 48.8224 149.423 47.8712C148.165 47.1195 146.662 46.8331 145.209 46.9277ZM124.728 47.6897C125.462 53.5578 125.864 59.5895 124.621 65.4193C127.362 65.317 130.249 64.6419 132.33 62.7524C133.719 61.5174 134.501 59.7455 134.787 57.9352C133.486 58.7457 132.018 59.2264 130.558 59.6585C132.097 57.4954 133 54.7109 132.386 52.0645C132.074 50.6864 131.3 49.234 129.891 48.738C128.237 48.1167 126.449 48.0348 124.728 47.6897ZM166.864 47.613C166.122 50.4844 165.388 53.3558 164.626 56.2221C166.452 56.2169 168.278 56.2016 170.103 56.1837C169.032 53.3251 167.945 50.4716 166.864 47.613ZM241.988 33.7008C246.66 33.7136 251.329 33.7392 256 33.6855C255.08 34.2659 254.151 34.854 253.108 35.1787C252.829 39.2698 252.911 43.3762 252.86 47.4749C252.712 58.6102 252.87 69.7532 252.635 80.8885C250.101 76.7898 247.933 72.4763 245.604 68.26C241.625 60.9549 237.795 53.568 233.678 46.3371C233.658 51.4048 233.834 56.4726 234.008 61.5353C234.126 63.7854 234.126 66.0508 234.471 68.2804C235.798 68.7586 237.112 69.2648 238.452 69.7149C233.397 69.6816 228.339 69.5487 223.284 69.6433C224.315 69.0935 225.361 68.577 226.432 68.1091C226.885 64.9207 226.856 61.6862 227.025 58.4747C227.209 52.7472 227.332 47.0172 227.427 41.2897C226.038 40.8551 224.67 40.3565 223.3 39.8758C227.69 39.7837 232.083 39.8527 236.473 39.6993C238.168 42.7241 239.869 45.749 241.605 48.7508C243.072 51.231 244.461 53.7674 246.128 56.1198C246.24 51.2821 246.312 46.4419 246.261 41.6017C246.202 39.4488 246.24 37.2677 245.793 35.1506C244.491 34.7517 243.254 34.1892 241.988 33.7008Z" fill="#E50B22"/>
<path d="M186.357 44.4016C188.561 43.7291 190.934 43.3251 193.22 43.7981C195.754 44.2558 198.234 44.9769 200.691 45.7414C199.551 47.4954 199.014 49.5358 198.723 51.5865C196.434 49.2213 193.302 47.3522 189.914 47.498C187.986 47.5031 185.987 48.173 184.677 49.6381C183.286 51.0853 182.982 53.2817 183.396 55.184C183.754 56.8972 184.844 58.3418 186.089 59.5257C185.161 59.3978 184.194 59.1754 183.478 58.5361C183.22 58.3648 183.023 58.0043 182.673 58.1091L182.913 58.3214C183.358 60.4973 184.161 62.8087 186.081 64.1179C188.873 66.0074 192.67 65.9052 195.613 64.4042C196.051 63.2588 195.716 61.9471 195.693 60.7428C195.741 60.1214 195.053 59.8939 194.631 59.6126C192.686 58.6052 190.609 57.879 188.546 57.1529C192.08 57.135 195.611 56.9688 199.142 56.8358C199.316 60.776 199.454 64.7648 200.5 68.5925C196.805 68.6922 193.113 68.8328 189.418 68.8533C186.485 68.8814 183.435 67.8995 181.392 65.7262C179.275 63.5196 178.418 60.4257 178.18 57.4469C177.874 54.3607 178.735 51.1569 180.643 48.6972C182.121 46.7999 184.082 45.2223 186.357 44.4016Z" fill="#E50B22"/>
<path d="M206.145 45.5324C208.51 43.7988 211.676 43.4971 214.471 44.1747C216.918 44.7372 219.063 46.3352 220.431 48.4242C222.277 51.2036 222.977 54.5992 223.011 57.8976C224.044 56.8032 224.849 55.5248 225.573 54.2105C225.381 56.545 224.563 58.7772 223.522 60.861C222.972 62.0065 222.203 63.0395 221.768 64.2413C220.602 66.9976 218.017 69.2119 214.977 69.4855C212.075 69.6415 208.817 69.713 206.421 67.7902C203.88 65.7294 203.046 62.367 202.445 59.3013C201.804 60.232 201.175 61.1704 200.541 62.1062C199.791 57.5984 201.001 52.9397 203.261 49.0277C203.985 47.693 204.89 46.4171 206.145 45.5324ZM210.257 48.4524C208.794 48.7745 207.493 49.7053 206.708 50.9786C205.552 52.8119 205.335 55.0722 205.552 57.1868C205.752 59.355 206.37 61.6102 207.892 63.2364C209.405 64.8754 211.799 65.4814 213.959 65.1387C215.854 64.8217 217.421 63.4231 218.255 61.7355C219.301 59.713 219.365 57.3351 218.991 55.1285C218.623 53.0855 217.731 51.0297 216.076 49.7078C214.471 48.4038 212.251 48.033 210.257 48.4524Z" fill="#E50B22"/>
<path d="M212.144 50.5234C212.668 52.5076 213.121 54.8267 214.956 56.0464C214.182 56.3481 213.578 56.9668 213.243 57.7211C212.346 59.6695 212.261 61.8556 212.049 63.9574C211.978 61.8429 211.937 59.6081 210.858 57.7211C210.469 57.0001 209.848 56.4452 209.145 56.0412C211.078 54.8855 211.648 52.5587 212.144 50.5234Z" fill="#E50B22"/>
</g>
<defs>
<clipPath id="clip0_201_77">
<rect width="256" height="106.496" fill="white"/>
</clipPath>
</defs>
</svg>
