<svg width="257" height="37" viewBox="0 0 257 37" fill="none" xmlns="http://www.w3.org/2000/svg">
<g clip-path="url(#clip0_201_73)">
<path d="M20.0351 0.46792C18.8536 1.1688 18.6333 1.74952 18.5532 4.31273L18.4932 6.6156L16.9713 7.07618C14.7885 7.75703 12.4857 9.17881 10.7635 10.921C9.02134 12.6832 7.96001 14.4654 7.19906 16.7483L6.63836 18.4704H4.63585C2.23285 18.4704 1.27165 18.8509 0.670897 19.9723C0.150246 20.8935 0.290421 22.4154 0.971272 23.1563C1.83235 24.0574 2.4331 24.2577 4.65588 24.2577H6.71846L7.05888 25.4391C8.44061 30.2852 12.3655 34.2301 17.2917 35.732C18.8336 36.2126 22.2579 36.3728 24.0201 36.0724C29.9074 35.0311 34.5733 30.6056 36.0351 24.6782C36.736 21.7545 36.2153 17.3891 34.8136 14.6456C32.9713 11.0011 29.1865 7.89721 25.3217 6.89595L24.3205 6.63563V4.43288C24.3205 2.6106 24.2604 2.13 23.8999 1.54927C23.0589 0.167545 21.3367 -0.333081 20.0351 0.46792ZM24.6809 12.7232C28.7059 14.2051 31.3693 18.8509 30.5282 22.916C29.6071 27.5217 26.0226 30.4654 21.4168 30.4654C17.3918 30.4654 14.2078 28.2226 12.766 24.3978C12.1653 22.7358 12.1653 19.9923 12.766 18.3102C14.6083 13.4041 19.8349 10.921 24.6809 12.7232Z" fill="black"/>
<path d="M19.4543 15.7274C17.9524 16.228 16.1902 18.0303 15.7496 19.5121C15.0487 21.9151 15.5093 23.7774 17.2515 25.5396C18.2127 26.5008 18.6933 26.8012 19.6545 27.0615C22.478 27.8826 25.3616 26.621 26.7434 23.9577C27.1839 23.1166 27.264 22.636 27.264 21.3744C27.264 19.5922 26.7033 18.2305 25.5018 17.1091C23.9198 15.5872 21.4768 15.0465 19.4543 15.7274ZM22.3579 20.1729C23.1188 20.8338 23.1188 21.8951 22.3779 22.5559C22.0775 22.7962 21.637 23.0365 21.3967 23.0365C20.836 23.0365 19.7546 21.9351 19.7546 21.3744C19.7546 20.8137 20.836 19.7124 21.3967 19.7124C21.637 19.7124 22.0775 19.9126 22.3579 20.1729ZM204.546 0.348152C203.524 0.808728 203.024 1.68983 203.024 3.03151C203.024 4.07281 203.084 4.25303 203.725 4.87381C204.986 6.15541 206.768 6.07531 207.99 4.69358C209.131 3.37193 208.731 1.38945 207.169 0.488327C206.268 0.00772664 205.467 -0.0323234 204.546 0.348152ZM67.7546 5.33438V8.95891H63.8297V13.9251H67.7346L67.7947 21.9351C67.8547 29.3043 67.8948 30.0252 68.2553 30.6861C68.876 31.8676 69.8573 32.7286 71.0387 33.1692C72.3404 33.6698 75.9649 33.9301 78.1476 33.7099L79.5293 33.5497V28.1028L77.667 28.1629C75.9248 28.223 75.7847 28.203 75.284 27.7023L74.7634 27.1817V13.9251H79.5494L79.4893 11.4821L79.4492 9.05904L77.1263 8.99897L74.7834 8.93889L74.7434 5.37443L74.6833 1.80998L71.239 1.7499L67.7546 1.70985V5.33438ZM130.633 17.6498V33.5697H137.662V1.70985H130.633V17.6498ZM6.21771 5.13413C5.15638 5.67481 4.67578 6.45579 4.67578 7.57719C4.67578 8.87882 5.13636 9.67982 6.11758 10.2005C7.49931 10.9013 8.64074 10.641 9.72209 9.37944C10.8034 8.09784 10.2628 5.93514 8.66076 5.15416C7.79969 4.73363 7.03873 4.73363 6.21771 5.13413ZM50.0325 8.53839C44.6057 9.21924 41.5619 12.3431 41.9624 16.7887C42.0825 18.2706 42.6633 19.412 43.7847 20.4132C45.0462 21.5747 46.3479 22.0953 50.8535 23.1967C55.3191 24.3381 56.4205 24.7987 56.9011 25.7199C57.9824 27.7624 55.5394 29.6247 52.1952 29.3644C49.9524 29.1842 48.6107 28.203 48.1701 26.5008L48.0099 25.8L44.7258 25.7399L41.4618 25.6798L41.5819 26.8613C41.7421 28.4633 42.5631 29.9852 43.8648 31.2267C46.0074 33.2493 48.4305 34.0303 52.6958 34.0503C55.8598 34.0703 57.5819 33.79 59.4242 32.9089C62.488 31.4871 64.07 29.044 64.07 25.8C64.07 23.8976 63.7296 22.9364 62.7083 21.795C61.2064 20.1129 59.4442 19.392 53.9974 18.1704C50.1726 17.3294 48.9711 16.6285 48.9711 15.2868C48.9711 13.845 49.9924 13.2042 52.3754 13.2042C54.9386 13.2042 56.3203 13.9852 56.7208 15.6072L56.861 16.188H63.4292L63.3091 15.3068C62.8485 12.203 60.4054 9.79997 56.8009 8.87882C55.219 8.47831 51.8748 8.31811 50.0325 8.53839Z" fill="black"/>
<path d="M89.6821 8.55801C88.02 8.77829 86.2778 9.47916 84.6758 10.5405C81.1514 12.8634 79.2891 16.6481 79.2891 21.4742C79.2891 27.5618 82.473 32.0674 87.9198 33.6694C89.662 34.19 93.8272 34.19 95.5494 33.6694C98.7734 32.7082 100.836 31.0061 102.278 28.1625C103.579 25.5593 103.66 25.6794 100.135 25.6794H97.1514L96.851 26.2401C96.4105 27.0812 95.5093 27.8822 94.448 28.3427C93.3667 28.8434 90.9637 28.9235 89.662 28.523C87.8998 28.0023 86.5782 26.2001 86.2978 23.9773L86.1777 22.976L94.9286 22.936L103.66 22.8759L103.619 21.0136C103.399 12.7833 97.4117 7.41658 89.6821 8.55801ZM93.9674 14.185C95.0688 14.7658 96.1301 16.3277 96.4305 17.8096L96.5707 18.4704H86.2177L86.418 17.5893C86.8385 15.747 88.1401 14.4053 90.0025 13.9047C90.8836 13.6444 93.2866 13.8446 93.9674 14.185ZM115.414 8.51796C110.368 9.31896 106.643 12.8033 105.302 17.9698C104.881 19.5317 104.901 23.1362 105.322 24.8784C106.343 29.2439 109.307 32.4278 113.572 33.6694C115.334 34.19 119.519 34.2101 121.201 33.6894C123.965 32.8684 125.887 31.5467 127.169 29.5643C127.75 28.6832 128.971 26.12 128.971 25.7795C128.971 25.7395 127.589 25.6994 125.887 25.6994C122.984 25.6994 122.783 25.7195 122.663 26.12C122.463 26.7608 120.621 28.2827 119.7 28.563C119.259 28.7032 118.198 28.8033 117.357 28.8033C114.193 28.8033 112.43 27.2614 111.99 24.0974L111.85 23.0161H129.372V21.6143C129.352 15.6869 125.987 10.4404 121.181 8.95851C119.7 8.49794 116.916 8.29769 115.414 8.51796ZM119.599 14.185C120.741 14.7858 121.662 16.0874 122.103 17.6894L122.303 18.4704H112.01V17.9898C112.01 17.7295 112.25 16.9885 112.591 16.3678C113.191 15.1663 114.353 14.2051 115.554 13.8847C116.516 13.6444 118.899 13.8446 119.599 14.185ZM147.314 8.55801C143.589 9.05864 140.846 10.7808 139.785 13.2439C139.284 14.4253 139.344 16.8684 139.925 18.1901C140.506 19.5317 141.827 20.7733 143.529 21.5743C144.23 21.9147 146.453 22.5555 148.435 23.0161C150.418 23.4767 152.42 23.9973 152.921 24.1775C154.924 24.9385 155.705 27.1012 154.443 28.3828C153.662 29.1437 152 29.6243 150.037 29.6243C147.174 29.6243 145.372 28.6031 144.811 26.7007L144.551 25.7996L141.687 25.7395L138.823 25.6794L138.964 26.7808C139.404 30.165 142.048 32.8484 145.912 33.7895C147.394 34.17 152.08 34.17 153.562 33.7895C156.666 33.0286 159.129 31.2464 160.13 29.0436C160.831 27.5017 160.851 24.9986 160.15 23.5167C158.909 20.8734 156.946 19.8521 150.338 18.4304C147.554 17.8296 146.213 17.3089 145.572 16.568C145.011 15.8872 144.911 15.0061 145.292 14.2651C145.692 13.5442 147.234 13.0036 149.096 12.9835C151.78 12.9635 153.302 13.7245 153.782 15.3865L154.002 16.1675H159.95L159.81 15.3865C159.429 13.1437 157.767 10.8609 155.665 9.71946C153.742 8.65814 150.198 8.17754 147.314 8.55801ZM171.344 8.53799C167.039 9.21884 163.494 12.523 162.053 17.2288C161.432 19.2113 161.392 23.3966 161.952 25.4792C163.174 30.0048 166.218 32.9685 170.623 33.9097C173.447 34.5104 176.851 34.0499 179.454 32.7282C180.596 32.1475 182.638 30.2051 183.299 29.0837C183.7 28.4228 184.621 26.0799 184.621 25.7595C184.621 25.7395 183.419 25.6994 181.957 25.6994H179.294L178.833 26.6206C178.233 27.8421 176.791 29.1037 175.629 29.384C174.448 29.6644 172.265 29.6644 171.364 29.364C169.682 28.8033 168.12 27.2614 167.639 25.6594C167.519 25.2589 167.359 24.4579 167.259 23.8571L167.099 22.7758H184.821L184.941 22.2351C185.121 21.4742 184.901 18.7908 184.501 17.329C183.459 13.384 180.395 10.0198 176.831 8.91846C175.249 8.47791 172.926 8.29769 171.344 8.53799ZM175.95 13.6243C176.491 13.8646 177.171 14.4053 177.472 14.7858C178.153 15.5868 178.894 17.2088 179.114 18.3102L179.254 19.0912H167.179L167.279 18.1901C167.479 16.4078 169.141 14.125 170.703 13.4842C172.405 12.7833 174.408 12.8434 175.95 13.6243ZM220.706 8.47791C216 9.09869 212.275 12.5029 210.894 17.4291C210.313 19.5317 210.293 23.3165 210.853 25.5392C211.614 28.5029 213.116 30.6656 215.379 32.2076C217.562 33.6494 218.984 34.0499 222.047 34.0699C224.871 34.0899 225.972 33.8897 227.915 32.9084C229.577 32.0874 230.618 31.1863 231.66 29.7445C232.42 28.6631 233.422 26.5004 233.422 25.9197C233.422 25.7996 232.34 25.7195 230.798 25.7195H228.155L227.554 26.8609C226.533 28.7833 224.951 29.6444 222.388 29.6444C220.025 29.6243 218.483 28.8834 217.342 27.1813C216.621 26.12 216.06 24.518 216.06 23.4767V22.8158H233.842V20.9936C233.842 13.3039 227.775 7.55676 220.706 8.47791ZM224.45 13.4041C226.153 14.1049 227.594 16.1074 227.955 18.2101L228.095 19.0912H216.06V18.5705C216.06 17.7095 216.841 15.8872 217.622 14.966C219.224 13.1037 222.148 12.4228 224.45 13.4041ZM243.214 8.53799C239.249 9.09869 236.486 10.8008 235.504 13.2839C235.124 14.185 235.124 16.9685 235.504 17.8697C236.285 19.8321 237.847 21.1938 240.15 21.9948C240.831 22.2351 242.813 22.7357 244.556 23.1362C249.101 24.1775 250.443 24.8584 250.723 26.2802C251.144 28.523 249.081 29.7845 245.317 29.6043C242.313 29.4641 240.911 28.5029 240.37 26.2802L240.25 25.7195H234.623L234.763 26.8809C235.164 30.1049 237.367 32.528 240.951 33.6293C242.153 34.0098 242.934 34.0899 245.317 34.0899C248.581 34.11 249.762 33.8897 251.965 32.8484C253.026 32.3477 253.767 31.8071 254.568 30.946C256.01 29.384 256.471 28.0223 256.35 25.7795C256.25 23.9372 255.81 22.956 254.588 21.7545C253.226 20.3728 251.665 19.752 247.079 18.7107C243.394 17.8897 242.433 17.5492 241.572 16.8083C240.971 16.2877 240.871 16.0474 240.871 15.3265C240.871 14.3452 241.111 14.0449 242.313 13.4441C243.314 12.9235 246.418 12.9235 247.639 13.4441C248.661 13.8646 249.442 14.7257 249.642 15.6068L249.782 16.2276H255.589L255.449 15.2263C255.029 12.2026 252.265 9.51921 248.761 8.79831C247.219 8.43786 244.656 8.33774 243.214 8.53799ZM203.164 9.07866C203.084 9.15876 203.024 14.7057 203.024 21.4141V33.5693H208.611L208.571 21.314L208.511 9.07866L205.907 9.01859C204.466 8.97854 203.244 9.01859 203.164 9.07866ZM186.263 21.374V33.5693H191.81L191.89 25.9598L191.95 18.3503L192.471 17.329C193.432 15.4666 195.474 14.5655 199.359 14.2051L200.741 14.0849V9.09869L198.518 9.19881C195.935 9.31896 194.613 9.73949 192.791 11.0211L191.629 11.8221V9.15876H186.243V21.374H186.263Z" fill="black"/>
</g>
<defs>
<clipPath id="clip0_201_73">
<rect width="256" height="36.1452" fill="white" transform="translate(0.350586 0.0878906)"/>
</clipPath>
</defs>
</svg>
